<svg xmlns="http://www.w3.org/2000/svg" viewBox="0 0 64 64">
  <rect width="64" height="64" rx="16" fill="#050505"/>
  <path fill="#25f4ee" d="M38 12h7c1 7 5 11 12 12v8c-5 0-9-2-12-5v14c0 10-7 17-17 17-8 0-15-5-15-13 0-9 7-14 16-14 1 0 2 0 3 .3v9c-1-.4-2-.6-3-.6-4 0-7 2-7 6s3 6 7 6c5 0 8-4 8-10z"/>
  <path fill="#fe2c55" d="M34 12h7c1 7 5 11 12 12v8c-5 0-9-2-12-5v14c0 10-7 17-17 17-5 0-10-2-13-6 3 2 6 3 10 3 10 0 17-7 17-17V24c3 3 7 5 12 5v-3c-7-1-11-5-12-12h-4z"/>
  <path fill="#fff" d="M36 12h7c1 7 5 11 12 12v6c-5 0-9-2-12-5v14c0 10-7 17-17 17-8 0-14-5-14-13s7-13 15-13c1 0 2 0 3 .3v8c-1-.4-2-.6-3-.6-4 0-7 2-7 6s3 6 7 6c5 0 8-4 8-10z"/>
</svg>
