<svg xmlns="http://www.w3.org/2000/svg" viewBox="0 0 64 64" role="img" aria-label="DeliBlock">
  <defs>
    <linearGradient id="dbShieldOuter" x1="10%" y1="6%" x2="90%" y2="94%">
      <stop offset="0%" stop-color="#59f7d5"/>
      <stop offset="52%" stop-color="#4ec9ff"/>
      <stop offset="100%" stop-color="#6d84ff"/>
    </linearGradient>
    <linearGradient id="dbShieldInner" x1="20%" y1="16%" x2="80%" y2="84%">
      <stop offset="0%" stop-color="#0e2138"/>
      <stop offset="100%" stop-color="#142946"/>
    </linearGradient>
    <radialGradient id="dbGlow" cx="20%" cy="14%" r="88%">
      <stop offset="0%" stop-color="#c8fbff" stop-opacity="0.45"/>
      <stop offset="100%" stop-color="#c8fbff" stop-opacity="0"/>
    </radialGradient>
  </defs>

  <path d="M32 4 8 13v16c0 16.4 10.2 29 24 33 13.8-4 24-16.6 24-33V13L32 4Z" fill="url(#dbShieldOuter)"/>
  <path d="M32 8.8 12.8 16v12.9c0 13.8 8.1 24.4 19.2 28 11.1-3.6 19.2-14.2 19.2-28V16L32 8.8Z" fill="url(#dbShieldInner)"/>
  <path d="M32 8.8 12.8 16v12.9c0 13.8 8.1 24.4 19.2 28 11.1-3.6 19.2-14.2 19.2-28V16L32 8.8Z" fill="url(#dbGlow)"/>

  <path d="M27.8 23.8h6.4c5 0 8 3 8 7.7 0 5-3.2 8.4-8.3 8.4h-6.1V23.8Z"
        fill="none"
        stroke="#e8f7ff"
        stroke-width="2"
        stroke-linejoin="round"/>
</svg>
